<svg width="27" height="29" viewBox="0 0 27 29" fill="none" xmlns="http://www.w3.org/2000/svg">
<path d="M25.5312 5.75H21.1562V3.01562C21.1562 1.80908 20.1753 0.828125 18.9688 0.828125H8.03125C6.82471 0.828125 5.84375 1.80908 5.84375 3.01562V5.75H1.46875C0.86377 5.75 0.375 6.23877 0.375 6.84375V7.9375C0.375 8.08789 0.498047 8.21094 0.648438 8.21094H2.71289L3.55713 26.0869C3.61182 27.2524 4.57568 28.1719 5.74121 28.1719H21.2588C22.4277 28.1719 23.3882 27.2559 23.4429 26.0869L24.2871 8.21094H26.3516C26.502 8.21094 26.625 8.08789 26.625 7.9375V6.84375C26.625 6.23877 26.1362 5.75 25.5312 5.75ZM18.6953 5.75H8.30469V3.28906H18.6953V5.75Z" fill="#F6184D"/>
</svg>
