<svg width="50" height="50" viewBox="0 0 50 50" fill="none" xmlns="http://www.w3.org/2000/svg">
<path d="M14.5835 45.8334C13.4377 45.8334 12.4571 45.4257 11.6418 44.6104C10.8252 43.7938 10.4168 42.8125 10.4168 41.6667C10.4168 40.5209 10.8252 39.5396 11.6418 38.7229C12.4571 37.9077 13.4377 37.5 14.5835 37.5C15.7293 37.5 16.7099 37.9077 17.5252 38.7229C18.3418 39.5396 18.7502 40.5209 18.7502 41.6667C18.7502 42.8125 18.3418 43.7938 17.5252 44.6104C16.7099 45.4257 15.7293 45.8334 14.5835 45.8334ZM35.4168 45.8334C34.271 45.8334 33.2904 45.4257 32.4752 44.6104C31.6585 43.7938 31.2502 42.8125 31.2502 41.6667C31.2502 40.5209 31.6585 39.5396 32.4752 38.7229C33.2904 37.9077 34.271 37.5 35.4168 37.5C36.5627 37.5 37.5439 37.9077 38.3606 38.7229C39.1759 39.5396 39.5835 40.5209 39.5835 41.6667C39.5835 42.8125 39.1759 43.7938 38.3606 44.6104C37.5439 45.4257 36.5627 45.8334 35.4168 45.8334ZM10.8335 8.33335H41.5627C42.3613 8.33335 42.9689 8.68891 43.3856 9.40002C43.8022 10.1125 43.8196 10.8334 43.4377 11.5625L36.0418 24.8959C35.6599 25.5903 35.1474 26.1285 34.5043 26.5104C33.8627 26.8924 33.1599 27.0834 32.396 27.0834H16.8752L14.5835 31.25H39.5835V35.4167H14.5835C13.021 35.4167 11.8404 34.7306 11.0418 33.3584C10.2432 31.9875 10.2085 30.625 10.9377 29.2709L13.7502 24.1667L6.25016 8.33335H2.0835V4.16669H8.85433L10.8335 8.33335Z" fill="white"/>
</svg>
