<svg width="35" height="35" viewBox="0 0 35 35" fill="none" xmlns="http://www.w3.org/2000/svg">
<path d="M17.5 18.9584C19.9162 18.9584 21.875 16.9996 21.875 14.5834C21.875 12.1671 19.9162 10.2084 17.5 10.2084C15.0838 10.2084 13.125 12.1671 13.125 14.5834C13.125 16.9996 15.0838 18.9584 17.5 18.9584Z" stroke="#94949E" stroke-width="2" stroke-linecap="round" stroke-linejoin="round"/>
<path d="M17.5002 2.91669C14.406 2.91669 11.4385 4.14585 9.25058 6.33377C7.06266 8.5217 5.8335 11.4892 5.8335 14.5834C5.8335 17.3425 6.41975 19.1479 8.021 21.1459L17.5002 32.0834L26.9793 21.1459C28.5806 19.1479 29.1668 17.3425 29.1668 14.5834C29.1668 11.4892 27.9377 8.5217 25.7497 6.33377C23.5618 4.14585 20.5944 2.91669 17.5002 2.91669V2.91669Z" stroke="#94949E" stroke-width="2" stroke-linecap="round" stroke-linejoin="round"/>
</svg>
