<svg width="250" height="250" viewBox="0 0 250 250" fill="none" xmlns="http://www.w3.org/2000/svg">
<path fill-rule="evenodd" clip-rule="evenodd" d="M125 237.5C187.131 237.5 237.5 187.131 237.5 125C237.5 62.8688 187.131 12.5 125 12.5C62.8688 12.5 12.5 62.8688 12.5 125C12.5 187.131 62.8688 237.5 125 237.5ZM125 250C194.037 250 250 194.037 250 125C250 55.9625 194.037 0 125 0C55.9625 0 0 55.9625 0 125C0 194.037 55.9625 250 125 250Z" fill="white"/>
<path d="M50 197.688C50 191.231 54.825 185.775 61.25 185.063C109.469 179.725 140.75 180.206 188.862 185.181C191.265 185.434 193.542 186.38 195.416 187.905C197.289 189.43 198.678 191.468 199.412 193.77C200.147 196.071 200.195 198.536 199.551 200.865C198.908 203.193 197.6 205.284 195.788 206.881C139.006 256.375 106.556 255.694 54 206.931C51.4375 204.556 50 201.181 50 197.694V197.688Z" fill="white"/>
<path fill-rule="evenodd" clip-rule="evenodd" d="M188.219 191.394C140.488 186.456 109.656 185.994 61.9313 191.275C60.3603 191.458 58.912 192.214 57.8638 193.399C56.8155 194.583 56.2409 196.112 56.25 197.694C56.25 199.481 56.9938 201.175 58.25 202.35C84.3 226.513 104.038 237.431 123.331 237.5C142.694 237.569 163.494 226.738 191.681 202.175C192.577 201.378 193.221 200.338 193.537 199.181C193.852 198.025 193.825 196.802 193.458 195.66C193.092 194.519 192.401 193.509 191.471 192.752C190.541 191.996 189.411 191.526 188.219 191.4V191.394ZM60.5625 178.85C109.288 173.456 141.025 173.944 189.513 178.963C193.127 179.34 196.553 180.763 199.371 183.057C202.189 185.351 204.277 188.418 205.38 191.881C206.482 195.343 206.551 199.052 205.577 202.554C204.604 206.055 202.631 209.197 199.9 211.594C171.306 236.519 147.494 250.094 123.294 250C99.025 249.913 76.2625 236.106 49.7563 211.513C47.8585 209.745 46.3456 207.605 45.3122 205.226C44.2787 202.847 43.747 200.281 43.75 197.688C43.7409 193.028 45.4513 188.528 48.5536 185.051C51.6558 181.574 55.9318 179.364 60.5625 178.844V178.85Z" fill="white"/>
<path d="M175 100C175 113.261 169.732 125.979 160.355 135.355C150.979 144.732 138.261 150 125 150C111.739 150 99.0215 144.732 89.6447 135.355C80.2678 125.979 75 113.261 75 100C75 86.7392 80.2678 74.0215 89.6447 64.6447C99.0215 55.2678 111.739 50 125 50C138.261 50 150.979 55.2678 160.355 64.6447C169.732 74.0215 175 86.7392 175 100Z" fill="white"/>
<path fill-rule="evenodd" clip-rule="evenodd" d="M125 137.5C134.946 137.5 144.484 133.549 151.517 126.517C158.549 119.484 162.5 109.946 162.5 100C162.5 90.0544 158.549 80.5161 151.517 73.4835C144.484 66.4509 134.946 62.5 125 62.5C115.054 62.5 105.516 66.4509 98.4835 73.4835C91.4509 80.5161 87.5 90.0544 87.5 100C87.5 109.946 91.4509 119.484 98.4835 126.517C105.516 133.549 115.054 137.5 125 137.5ZM125 150C138.261 150 150.979 144.732 160.355 135.355C169.732 125.979 175 113.261 175 100C175 86.7392 169.732 74.0215 160.355 64.6447C150.979 55.2678 138.261 50 125 50C111.739 50 99.0215 55.2678 89.6447 64.6447C80.2678 74.0215 75 86.7392 75 100C75 113.261 80.2678 125.979 89.6447 135.355C99.0215 144.732 111.739 150 125 150Z" fill="white"/>
</svg>
